# xmcd
#
# Track frame offsets:
#	150
#	12048
#	24413
#	42388
#	52514
#	67354
#	78883
#	94577
#	107424
#	119504
#	130547
#	142091
#	158547
#	174423
#	184991
#	197267
#
# Disc length: 2764 seconds
#
# Revision: 0
# Processed by: cddbd v1.5.1PL2 Copyright (c) Steve Scherf et al.
# Submitted via: dBpowerAMP V4.0
#
DISCID=c20aca10
DTITLE=Nashville session Singers - Country Crossovers
DYEAR=1900
DGENRE=Country
TTITLE0=9 to 5
TTITLE1=I love the rainy night
TTITLE2=I belive in you
TTITLE3=Mr sandman
TTITLE4=Could I have this dance
TTITLE5=Mamas dont let yours babies grow up to be cowboys
TTITLE6=Lucille
TTITLE7=Misty
TTITLE8=Youre my Jamaica
TTITLE9=On the road again
TTITLE10=Thake this job and shove it
TTITLE11=Lyin eyes
TTITLE12=The devil went down to georgia
TTITLE13=Dont make your brown eyes blue
TTITLE14=Behind closed doors
TTITLE15=Funny face
EXTD=
EXTT0=
EXTT1=
EXTT2=
EXTT3=
EXTT4=
EXTT5=
EXTT6=
EXTT7=
EXTT8=
EXTT9=
EXTT10=
EXTT11=
EXTT12=
EXTT13=
EXTT14=
EXTT15=
PLAYORDER=
